<?xml version="1.0" standalone="no"?><!DOCTYPE svg PUBLIC "-//W3C//DTD SVG 1.1//EN"
        "http://www.w3.org/Graphics/SVG/1.1/DTD/svg11.dtd">
<svg t="1624930974029" class="icon" viewBox="0 0 1024 1024" version="1.1" xmlns="http://www.w3.org/2000/svg" p-id="3108"
     xmlns:xlink="http://www.w3.org/1999/xlink" width="200" height="200">
    <defs>
        <style type="text/css"></style>
    </defs>
    <path d="M197.8 505.6zM860.3 476.2z" fill="#333B35" p-id="3109"></path>
    <path d="M314.5 227.6c-2.6 1.6-4.8 2.9-6.5 4l-200.6 125c-0.5 0.4-1 1.3-1.1 2.1-0.1 1 0.2 1.4 0.3 1.5l1.1 1.3 0.8 1.5 75 142.7c1.6 1.7 2.6 1.6 3 1.5l0.3-0.3 18.4-13.8c19.5-14.6 46.7-10.7 62 8.9l0.2 0.2c6.2 8.3 9.1 17.4 9.1 28.7v0.9l-0.1 0.9c-0.7 6.5-1.5 13.5-2.2 20.4-0.7 6.9-1.5 13.8-2.2 20.4-4.3 42-10.2 118.2-17.4 226.7v0.4c-1 10.8 2.9 22.3 9.9 29.3l0.7 0.8c7.2 8.3 18.7 13.4 30 13.4h428.4c12.8 0 23.6-6.8 30.7-12.7 7-8.4 10.9-19.7 9.9-29.1v-0.4l-21.8-295.6c-1.1-11.8 2.9-23.8 11.1-32.8 8.2-9 19.3-14 31.4-14 5.1 0 11.4 0 18.3 2.3l1.2 0.4 27.1 11.4c0.9 0.3 1.9 0.7 3 1.1 9.3 3.3 14.9 4.5 16.8 3.5l0.1-0.1 0.6-0.7c5.3-6.3 22-43.7 32-66.1 11.9-26.6 22.1-49.5 28.6-59.6 2.5-3.8 3.1-7.8 1.8-12.2-1.9-6.6-8.1-13.4-15.3-16.7l-0.6-0.3c-171-88.2-239.4-115.2-269-127.5-3.4-1.4 0.9 2.6-1 2-16.6-5.3-126 72-126 72s-117.9-81.3-137-76"
          fill="#FCF9ED" p-id="3110"></path>
    <path d="M717.7 858.6H303.4c-20.2 0-40.1-8.9-53.3-23.7-13.4-13.7-20.4-33.7-18.6-53.8 7-105.3 12.7-179.4 17-220.3v-0.1c0.7-6.3 1.4-12.9 2.1-19.6 0.7-6.4 1.3-12.8 2-18.9-0.1-3.7-0.8-5.4-2.1-7.2-4.2-5.3-10.5-5.2-14.3-2.4L220 524.7c-6.2 5.6-15.4 8.7-24.3 8.1-10.3-0.6-19.8-5.9-26.8-14.9l-1.6-2.5-72.8-138.1c-5.3-7.2-7.6-16.4-6.3-25.5 1.5-10.1 7.1-19.1 15.4-24.7l0.4-0.3 194.7-121.4c4.4-2.6 12.2-6.2 25.6-12.3 12.9-5.9 29-13.2 42.2-20.1l15.8 30.1c-14.1 7.4-30.6 14.9-43.9 21-9.4 4.3-19 8.7-22.1 10.5l-194 120.9c-0.4 0.4-0.7 1.4-0.6 1.7l2 3L196.4 498c0.5 0.5 1.1 1 1.5 1l0.9-0.8 16.9-12.7c19.4-14.6 46.5-10.7 61.7 8.8l0.2 0.2c6.2 8.2 9 17.3 9 28.5l-0.1 1.9c-0.7 6.3-1.4 13-2.1 19.7-0.7 6.7-1.4 13.4-2.1 19.7-4.2 40.5-9.9 114.3-16.9 219.2v0.4c-0.9 10.1 2.7 20.8 9.2 27.3l0.8 0.8c6.8 7.7 17.5 12.5 28.1 12.5h414.4c12 0 22.1-6.3 28.8-11.9 6.5-7.9 10.1-18.4 9.3-27.1v-0.4l-21.1-285.9c-1.1-11.8 2.9-23.7 11.1-32.7 8.2-9 19.3-14 31.2-14 5 0 11.2 0 18.1 2.3l1.2 0.5 26.2 11c0.9 0.3 1.9 0.7 2.9 1 8 2.9 13.1 4.1 15.1 3.5l0.6-0.6c-0.1 0.1-0.2 0.2-0.2 0.3 5.1-6 21.2-42.1 30.8-63.7 11.5-25.8 21.4-48 27.7-57.8 2.2-3.4 2.7-6.9 1.6-10.7-1.8-6.1-7.5-12.3-14.1-15.4l-0.7-0.3c-130.7-67.5-216.5-108.4-256.1-126.8l14.3-30.8c39.7 18.5 125.9 59.6 257 127.3 15.4 7.2 27.7 21.2 32.2 36.6 3.9 13.3 1.9 27-5.6 38.6-4.9 7.6-15.7 31.9-25.3 53.2-19.8 44.4-29.5 65.1-37.1 73.1-16.4 18.3-41.1 9.4-51.7 5.6-1-0.4-1.9-0.7-2.8-1l-1.2-0.5-26-10.9c-1.6-0.4-4.1-0.4-6.9-0.4-2.9 0-4.9 1.5-6 2.8-1.7 1.9-2.6 4.4-2.4 6.7v0.4l21.1 285.9c1.8 18.4-5 38.4-18.2 53.5l-1.6 1.6c-16.1 13.8-34.1 21.1-52.4 21.1z m-520.5-359l0.5-0.4c-0.2 0.1-0.3 0.2-0.5 0.4zM840.3 471z"
          fill="#333B35" p-id="3111"></path>
    <path d="M365.4 207.5c14.1 9.9 36.6 24 63.4 40.9 26.8 16.9 49.3 25.4 67.7 32.4-8.5 9.9-16.9 24-28.2 35.2-29.6 28.2-49.3 49.3-71.9 49.3-18.3 0-32.4-19.7-40.9-29.6-24-36.6-56.4-87.4-40.9-101.5 7.1-5.5 28.2-15.4 50.8-26.7z m242.4 152.2c-16.9 0-21.1-2.8-66.2-45.1-11.3-11.3-22.5-25.4-31-33.8 18.3-8.5 39.5-15.5 66.2-31 28.2-16.9 57.8-38.1 71.9-47.9 21.1 8.5 36.6 21.1 46.5 26.8 25.4 18.3-16.9 67.7-46.5 101.5-4.2 4.2-24 29.5-40.9 29.5z m0 0"
          fill="#B3E6E0" p-id="3112"></path>
    <path d="M395 395.1c-33.9 0-54.4-29.3-63.2-41.8-0.5-0.7-0.9-1.3-1.4-1.9-11.7-16.2-27.9-41.3-38.3-63.4-4.8-10.3-9.9-22.5-11.8-35.1-3.4-22.3 5.2-35.4 12.9-42.5l0.8-0.7c8.3-6.6 22-14.3 44.3-24.7l0.9-0.4 0.9-0.3c1-0.3 2.6-1.1 4.1-1.9 2.3-1.2 5-2.5 8-3.6l14.5-5.8 15.3 9.2c12.6 8.8 33.7 23 62.4 40.2 17.2 10.3 31.3 16.7 45 22.8 2.1 0.9 4.1 1.9 6.2 2.8 1.8 0.6 3.5 1.4 5 2.1 3.6-1.7 6.9-2.8 9.8-3.8 14.5-5.3 30.8-13.5 50.8-24.1 12.1-7.3 25-16.2 36.4-24.1 7.4-5.1 14.4-10 20.5-13.9 5.1-4.8 9.7-7.8 12.8-9.5l12.2-9.2 16.2 6.5c19.8 8.2 34.8 17.7 44 24.3 1.6 1 2.8 1.9 3.8 2.6h2.4l4.7 3.7c9.9 7.9 16.6 19.7 18.8 33l0.1 1c3.5 32.8-21.6 66.7-60.6 107.5l-1.5 3-2.9 2.9c-28.9 33.5-49 37.8-63.2 37.8-30.3 0-42.5-11.4-87.8-53.9l-0.8-0.7-0.7-0.8c-4.2-5-8.2-9.9-12.2-14.4-4.5 6.4-9.8 12.9-16.8 18.9l-4 4-3.4 3.2c-29.5 28.6-53 51-84.2 51z m-79.1-159.2c-4.6 4.8-2.2 17.5 7.1 37.8 9.3 19.9 24.1 42.9 35 57.7l0.1 0.1c0.5 0.7 1 1.4 1.6 2.2 6.7 9.5 19.1 27.3 35.3 27.3 17.6 0 35.8-17.4 61-41.4l3.3-3.1 4.6-4.6 0.6-0.5c6.6-5.5 11.2-12.4 16.5-20.3l0.9-1.4 1-1c0.3-0.4 0.8-1.2 1.1-1.8 0.9-1.5 2-3.3 3.5-5.3-1.3-0.7-2.6-1.3-3.5-1.6l-0.8-0.3-0.8-0.4c-2.2-1-4.5-2-6.7-3-13.9-6.2-29.6-13.3-48.5-24.6-28.7-17.2-50.1-31.6-63.3-40.8h-0.1c-1 0.3-2.6 1.1-4.1 1.9-2.2 1.1-4.7 2.4-7.5 3.4-18.4 8.6-30.2 15-36.3 19.7zM541.3 310c45.3 42.6 48.6 44 63.7 44 4.1 0 15.1 0 37.8-26.5l0.3-0.4 1.3-2.7 1.8-1.9c25.7-26.8 55-60.2 53.2-81.8-0.7-3.5-2.2-6.8-4.2-9.3l-0.6-0.3c-3-1.5-5-3-7-4.4-1-0.7-2-1.4-3.3-2.3l-0.5-0.3c-6.1-4.4-18.8-12.7-35.7-19.9l-0.3 0.2c-0.3 0.2-3.3 1.7-6.9 5.3l-1.3 1.3-1.6 1c-5.9 3.8-13.2 8.8-20.9 14.2-12 8.3-25.5 17.7-38.6 25.5l-0.7 0.4c-21.5 11.5-39.2 20.3-55.7 26.3l-0.4 0.1c-2.1 0.7-3.9 1.3-5.5 2l0.7 1.4 0.2 0.2c1.1 1.1 2.7 2.7 4.3 5 6.7 7.1 13.4 15.1 19.9 22.9z"
          fill="#333B35" p-id="3113"></path>
    <path d="M481.8 387.2c0-3.1 1.2-6 3.5-8.2 2.3-2.2 5.4-3.5 8.7-3.5 3.3 0 6.3 1.2 8.6 3.4l0.1 0.1c0.6 0.5 1.4 0.8 2.2 0.8 0.9 0 1.7-0.4 2.3-1 2.2-2.1 5.2-3.3 8.3-3.3 3.2 0 6.3 1.2 8.6 3.5 2.3 2.2 3.5 5.1 3.5 8.2 0 3.1-1.2 5.9-3.5 8.2l-19.4 19.1-19.3-19.1c-2.4-2.3-3.6-5.2-3.6-8.2zM481.8 471.2c0-3.1 1.2-6 3.5-8.2 2.3-2.2 5.4-3.5 8.7-3.5 3.3 0 6.3 1.2 8.6 3.4l0.1 0.1c0.6 0.5 1.4 0.8 2.2 0.8 0.9 0 1.7-0.4 2.3-1 2.2-2.1 5.2-3.3 8.3-3.3 3.2 0 6.3 1.2 8.6 3.5 2.3 2.2 3.5 5.1 3.5 8.2 0 3.1-1.2 5.9-3.5 8.2l-19.4 19.1-19.3-19.1c-2.4-2.3-3.6-5.2-3.6-8.2z"
          fill="#333B35" p-id="3114"></path>
    <path d="M719.5 777.9c-7.9 0-14.5-6.2-15-14.2l-3.2-56.2c-0.5-8.3 5.9-15.4 14.1-15.8 8.2-0.5 15.4 5.9 15.8 14.1l3.2 56.2c0.5 8.3-5.9 15.4-14.1 15.8-0.2 0.1-0.5 0.1-0.8 0.1zM713.2 678.1c-7.9 0-14.5-6.1-15-14.1l-0.2-3.2c-0.5-8.3 5.8-15.4 14-15.9 8.3-0.5 15.4 5.8 15.9 14l0.2 3.2c0.5 8.3-5.8 15.4-14 15.9-0.3 0.1-0.6 0.1-0.9 0.1z"
          fill="#FFFFFF" p-id="3115"></path>
</svg>