<?xml version="1.0" standalone="no"?><!DOCTYPE svg PUBLIC "-//W3C//DTD SVG 1.1//EN"
        "http://www.w3.org/Graphics/SVG/1.1/DTD/svg11.dtd">
<svg t="1624931961854" class="icon" viewBox="0 0 1024 1024" version="1.1" xmlns="http://www.w3.org/2000/svg"
     p-id="10606" xmlns:xlink="http://www.w3.org/1999/xlink" width="200" height="200">
    <defs>
        <style type="text/css"></style>
    </defs>
    <path d="M424.533333 371.2c-61.866667 0-147.2-49.066667-172.8-96-17.066667-29.866667-19.2-64-8.533333-96 12.8-34.133333 40.533333-64 78.933333-78.933333 72.533333-29.866667 155.733333-2.133333 189.866667 61.866666 25.6 49.066667 6.4 113.066667 0 132.266667-8.533333 21.333333-25.6 59.733333-53.333333 72.533333-10.666667 4.266667-21.333333 4.266667-34.133334 4.266667z m-42.666666-217.6c-12.8 0-23.466667 2.133333-36.266667 6.4-19.2 8.533333-36.266667 23.466667-42.666667 40.533333-4.266667 14.933333-4.266667 29.866667 4.266667 44.8 21.333333 38.4 102.4 70.4 125.866667 61.866667 12.8-10.666667 40.533333-81.066667 23.466666-115.2-12.8-23.466667-42.666667-38.4-74.666666-38.4z"
          fill="#FFBB12" p-id="10607"></path>
    <path d="M582.4 373.333333c-12.8 0-23.466667-2.133333-32-6.4-25.6-10.666667-44.8-38.4-55.466667-74.666666-14.933333-49.066667-10.666667-104.533333 10.666667-138.666667 38.4-64 125.866667-87.466667 198.4-53.333333 36.266667 17.066667 64 46.933333 74.666667 83.2 10.666667 34.133333 6.4 68.266667-12.8 100.266666-27.733333 51.2-125.866667 89.6-183.466667 89.6z m55.466667-221.866666c-32 0-61.866667 14.933333-76.8 38.4-12.8 19.2-12.8 55.466667-4.266667 87.466666 6.4 19.2 14.933333 32 21.333333 34.133334 21.333333 6.4 115.2-25.6 136.533334-59.733334 8.533333-14.933333 10.666667-32 6.4-46.933333-6.4-19.2-21.333333-34.133333-40.533334-44.8-14.933333-6.4-29.866667-8.533333-42.666666-8.533333z m102.4 117.333333z"
          fill="#FFBB12" p-id="10608"></path>
    <path d="M951.466667 324.266667H72.533333c-17.066667 0-32 14.933333-32 32s14.933333 32 32 32h70.4C132.266667 407.466667 128 426.666667 128 448v343.466667c0 78.933333 64 145.066667 145.066667 145.066666h480c78.933333 0 145.066667-64 145.066666-145.066666V448c0-21.333333-6.4-42.666667-14.933333-59.733333h70.4c17.066667 0 32-14.933333 32-32s-17.066667-32-34.133333-32z m-407.466667 64v484.266666H469.333333V388.266667h74.666667zM192 791.466667V448c0-34.133333 27.733333-59.733333 59.733333-59.733333H405.333333v484.266666h-132.266666c-44.8 0-81.066667-36.266667-81.066667-81.066666zM832 448v343.466667c0 44.8-36.266667 81.066667-81.066667 81.066666h-142.933333V388.266667h164.266667c34.133333 0 59.733333 27.733333 59.733333 59.733333z"
          fill="#543E3E" p-id="10609"></path>
</svg>