<?xml version="1.0" standalone="no"?><!DOCTYPE svg PUBLIC "-//W3C//DTD SVG 1.1//EN"
        "http://www.w3.org/Graphics/SVG/1.1/DTD/svg11.dtd">
<svg t="1624933181787" class="icon" viewBox="0 0 1024 1024" version="1.1" xmlns="http://www.w3.org/2000/svg"
     p-id="11219" xmlns:xlink="http://www.w3.org/1999/xlink" width="200" height="200">
    <defs>
        <style type="text/css"></style>
    </defs>
    <path d="M512 1023.957445a21.27748 21.27748 0 0 1-21.27748-21.27748v-43.789054a233.54162 233.54162 0 0 1-212.774799-232.818185 21.27748 21.27748 0 0 1 21.27748-21.27748c76.598928 0 148.09126 38.256909 191.497319 100.046711v-143.410215a317.757886 317.757886 0 0 1-297.884719-318.353655v-170.21984l0.042555-0.893654c0.42555-30.980011 30.256576-57.321531 91.195279-80.513984a21.490255 21.490255 0 0 1 27.490504 12.298383 21.27748 21.27748 0 0 1-12.340938 27.447949c-54.853343 20.93704-64.640984 37.66114-63.74733 42.342185 4.042721 22.043469 102.600008 63.15156 276.522129 63.151561 182.475668 0 276.607239-44.725263 276.607239-63.83244 0-40.554877-24.511657-73.151976-72.811536-96.940199-43.150729-21.234925-103.238333-33.448198-164.772805-33.448198-93.620912 0-145.410298 26.76707-145.410298 45.278477 0 6.255579 2.127748 11.106845 6.851349 15.745335 18.341188 18.043303 66.641067 27.235174 143.53788 27.235175 9.702531 0 18.426298-0.127665 25.532975-0.25533 6.213024-0.08511 11.404729-0.17022 15.575116-0.17022a21.27748 21.27748 0 0 1 0 42.55496c-4.000166 0-8.936542 0.08511-14.638906 0.17022-8.808877 0.127665-18.724182 0.297885-29.405478 0.297885-55.959772 0-134.516228-4.085276-170.475169-39.491003A62.726011 62.726011 0 0 1 363.05764 87.748327c0-64.811204 101.23825-87.833437 187.965258-87.833437 67.832606 0 134.771558 13.787807 183.539542 37.788804 63.194115 31.107676 96.599759 77.833022 96.599759 135.111998v170.21984a317.672776 317.672776 0 0 1-297.884719 318.353655v143.410215a234.903379 234.903379 0 0 1 191.497319-100.089266 21.27748 21.27748 0 0 1 21.27748 21.27748 233.584175 233.584175 0 0 1-212.774799 232.818185v43.789054a21.27748 21.27748 0 0 1-21.27748 21.36259z m190.178116-275.288036a190.98666 190.98666 0 0 0-167.581432 167.581433 190.98666 190.98666 0 0 0 167.581432-167.581433z m-380.356232 0a190.98666 190.98666 0 0 0 167.581432 167.581433 190.98666 190.98666 0 0 0-167.581432-167.581433zM235.392761 343.078087c0 152.516976 124.090263 276.607239 276.607239 276.607239s276.607239-124.090263 276.607239-276.607239V229.584009c-63.83244 36.384491-185.454515 49.661638-276.607239 49.661638-91.365499 0-213.072684-13.234593-276.607239-49.448864v113.281304z"
          p-id="11220"></path>
</svg>